<!DOCTYPE svg PUBLIC "-//W3C//DTD SVG 1.1//EN" "http://www.w3.org/Graphics/SVG/1.1/DTD/svg11.dtd">
<!-- Uploaded to: SVG Repo, www.svgrepo.com, Transformed by: SVG Repo Mixer Tools -->
<svg version="1.1" id="Layer_1" xmlns="http://www.w3.org/2000/svg" xmlns:xlink="http://www.w3.org/1999/xlink" viewBox="0 0 512 512" xml:space="preserve" width="64px" height="64px" fill="#000000">
<g id="SVGRepo_bgCarrier" stroke-width="0"/>
<g id="SVGRepo_tracerCarrier" stroke-linecap="round" stroke-linejoin="round"/>
<g id="SVGRepo_iconCarrier"> <polygon style="fill:#00479B;" points="478.609,211.478 478.609,178.087 445.217,178.087 445.217,144.696 411.826,144.696 411.826,111.304 289.391,111.304 289.391,44.522 0,44.522 0,389.565 44.522,389.565 44.522,434.087 77.913,434.087 77.913,467.478 155.826,467.478 155.826,434.087 189.217,434.087 189.217,389.565 311.652,389.565 311.652,434.087 345.043,434.087 345.043,467.478 422.957,467.478 422.957,434.087 456.348,434.087 456.348,389.565 512,389.565 512,211.478 "/> <rect y="44.522" style="fill:#4d8fe0;" width="289.391" height="244.87"/> <g> <polygon style="fill:#57565C;" points="189.217,356.174 155.826,356.174 155.826,322.783 77.913,322.783 77.913,356.174 44.522,356.174 44.522,434.087 77.913,434.087 77.913,467.478 155.826,467.478 155.826,434.087 189.217,434.087 "/> <polygon style="fill:#57565C;" points="456.348,356.174 422.957,356.174 422.957,322.783 345.043,322.783 345.043,356.174 311.652,356.174 311.652,434.087 345.043,434.087 345.043,467.478 422.957,467.478 422.957,434.087 456.348,434.087 "/> </g> <polygon style="fill:#ffd000;" points="411.826,178.087 322.783,178.087 322.783,267.13 445.217,267.13 445.217,211.478 411.826,211.478 "/> <rect x="77.913" y="322.783" width="77.913" height="33.391"/> <rect x="77.913" y="434.087" width="77.913" height="33.391"/> <rect x="345.043" y="322.783" width="77.913" height="33.391"/> <rect x="345.043" y="434.087" width="77.913" height="33.391"/> <path d="M77.913,356.174H33.391v-66.783h256V144.696h122.435v-33.391H289.391V44.522H0v345.043h44.522v44.522h33.391V356.174z M33.391,77.913H256V256H33.391V77.913z"/> <polygon points="478.609,211.478 478.609,356.174 422.957,356.174 422.957,434.087 456.348,434.087 456.348,389.565 512,389.565 512,211.478 "/> <rect x="411.826" y="144.696" width="33.391" height="33.391"/> <rect x="445.217" y="178.087" width="33.391" height="33.391"/> <polygon points="345.043,356.174 155.826,356.174 155.826,434.087 189.217,434.087 189.217,389.565 311.652,389.565 311.652,434.087 345.043,434.087 "/> </g>
</svg>